<svg xmlns="http://www.w3.org/2000/svg" version="1.1" xmlns:xlink="http://www.w3.org/1999/xlink" width="512" height="512" x="0" y="0" viewBox="0 0 496 496" style="enable-background:new 0 0 512 512" xml:space="preserve" class=""><g><path fill="#d4dedd" d="M149.602 221.602H8V196.8c0-36.403 29.602-66 66-66h9.602c36.398 0 66 29.597 66 66zm0 0" opacity="1" data-original="#d4dedd"></path><path fill="#173851" d="M149.602 229.602H8c-4.398 0-8-3.602-8-8V196.8c0-40.801 33.2-74 74-74h9.602c40.796 0 74 33.199 74 74v24.8c0 4.399-3.602 8-8 8zM16 213.602h125.602V196.8c0-32-26-58-58-58H74c-32 0-58 26-58 58zm0 0" opacity="1" data-original="#173851" class=""></path><path fill="#ffffff" d="M123.2 103.2c0-23.86-19.88-43.2-44.4-43.2-24.523 0-44.402 19.34-44.402 43.2s19.88 43.198 44.403 43.198c24.52 0 44.398-19.34 44.398-43.199zm0 0" opacity="1" data-original="#ffffff" class=""></path><path fill="#173851" d="M78.8 154.398c-28.8 0-52.402-23.199-52.402-51.199S50 52 78.801 52s52.398 23.2 52.398 51.2-23.597 51.198-52.398 51.198zm0-86.796c-20 0-36.402 16-36.402 35.199S58.801 138 78.801 138s36.398-16 36.398-35.2-16.398-35.198-36.398-35.198zm0 0" opacity="1" data-original="#173851" class=""></path><path fill="#d4dedd" d="M488 221.602H346.398V196.8c0-36.403 29.602-66 66-66H422c36.398 0 66 29.597 66 66zm0 0" opacity="1" data-original="#d4dedd"></path><path fill="#173851" d="M488 229.602H346.398c-4.398 0-8-3.602-8-8V196.8c0-40.801 33.204-74 74-74H422c40.8 0 74 33.199 74 74v24.8c0 4.399-3.602 8-8 8zm-133.602-16H480V196.8c0-32-26-58-58-58h-9.602c-32 0-58 26-58 58zm0 0" opacity="1" data-original="#173851" class=""></path><path fill="#ffffff" d="M461.602 103.2c0-23.86-19.88-43.2-44.403-43.2-24.52 0-44.398 19.34-44.398 43.2s19.879 43.198 44.398 43.198c24.524 0 44.403-19.34 44.403-43.199zm0 0" opacity="1" data-original="#ffffff" class=""></path><path fill="#173851" d="M417.2 154.398c-28.802 0-52.4-23.199-52.4-51.199S388.399 52 417.2 52s52.402 23.2 52.402 51.2-23.602 51.198-52.403 51.198zm0-86.796c-20 0-36.4 16-36.4 35.199S397.2 138 417.2 138s36.402-16 36.402-35.2-16.403-35.198-36.403-35.198zm0 0" opacity="1" data-original="#173851" class=""></path><path fill="#ffffff" d="M245.602 8C161.199 8 92.398 76.398 92.398 160.398s68.403 152.403 153.204 152.403c84.796 0 153.199-68.403 153.199-152.403S330 8 245.6 8zm0 0" opacity="1" data-original="#ffffff" class=""></path><path fill="#173851" d="M245.602 321.2c-88.801 0-161.204-72-161.204-160.4 0-88.402 72-160.8 161.204-160.8C334.8 0 406.8 72 406.8 160.398c0 88.403-72.403 160.801-161.2 160.801zm0-305.2c-80 0-145.204 64.8-145.204 144.398 0 79.602 65.204 144.403 145.204 144.403S390.8 240 390.8 160.398C390.8 80.801 325.6 16 245.6 16zm0 0" opacity="1" data-original="#173851" class=""></path><path fill="#ffffff" d="M336.398 278.398 457.2 401.2" opacity="1" data-original="#ffffff" class=""></path><path fill="#173851" d="m330.969 284.176 11.422-11.207 120.468 122.773-11.421 11.207zm0 0" opacity="1" data-original="#173851" class=""></path><path fill="#ffffff" d="M435.2 404 404 372c-5.2-5.2-5.2-13.602.398-18.8l6-6c5.204-5.2 13.602-5.2 18.801.402l31.2 32c5.203 5.199 5.203 13.597-.399 18.796l-6 6c-5.2 4.801-13.602 4.801-18.8-.398zm0 0" opacity="1" data-original="#ffffff" class=""></path><path fill="#173851" d="M444.8 416c-.402 0-.402 0 0 0-6 0-11.198-2.398-15.198-6.398l-31.204-32c-8.398-8.403-8-22 .403-30.403l6-6c4-4 9.597-6 15.199-6s11.2 2.403 15.2 6.403l31.198 32c8.403 8.398 8 22-.398 30.398l-6 6c-4.398 4-9.602 6-15.2 6zm-25.198-64.8c-1.602 0-2.801.402-3.602 1.6l-6 6c-2 2-2 5.598 0 7.598l31.2 32c.8 1.204 2.402 1.602 3.6 1.602 1.598 0 2.802-.398 4-1.602l6-6c2-2 2-5.597 0-7.597l-31.198-32c-1.204-.801-2.403-1.602-4-1.602zm0 0" opacity="1" data-original="#173851" class=""></path><path fill="#28a7e6" d="M335.2 248.398H160.8V216c0-44.8 36.4-81.602 81.598-81.602H254c44.8 0 81.602 36.403 81.602 81.602v32.398zm0 0" opacity="1" data-original="#28a7e6"></path><path fill="#173851" d="M335.2 256.398H160.8c-4.402 0-8-3.597-8-8V216c0-49.2 40-89.602 89.598-89.602H254c49.2 0 89.602 40 89.602 89.602v32.398c-.403 4.403-4 8-8.403 8zm-166.4-16h158.802V216c0-40.398-32.801-73.602-73.602-73.602h-11.602c-40.398 0-73.597 32.801-73.597 73.602zm0 0" opacity="1" data-original="#173851" class=""></path><path fill="#ffffff" d="M293.2 250.8c-4.4 0-8-3.6-8-8v-18c0-4.402 3.6-8 8-8 4.402 0 8 3.598 8 8v18c0 4.4-3.598 8-8 8zM202.8 250.8c-4.402 0-8-3.6-8-8v-18c0-4.402 3.598-8 8-8 4.4 0 8 3.598 8 8v18c0 4.4-3.6 8-8 8zm0 0" opacity="1" data-original="#ffffff" class=""></path><path fill="#173851" d="M335.2 256.398H160.8c-4.402 0-8-3.597-8-8V216c0-49.2 40-89.602 89.598-89.602H254c49.2 0 89.602 40 89.602 89.602v32.398c-.403 4.403-4 8-8.403 8zm-166.4-16h158.802V216c0-40.398-32.801-73.602-73.602-73.602h-11.602c-40.398 0-73.597 32.801-73.597 73.602zm0 0" opacity="1" data-original="#173851" class=""></path><path fill="#ffffff" d="M302.8 96.8c0-30.046-24.534-54.402-54.8-54.402s-54.8 24.356-54.8 54.403c0 30.043 24.534 54.398 54.8 54.398s54.8-24.355 54.8-54.398zm0 0" opacity="1" data-original="#ffffff" class=""></path><path fill="#173851" d="M248 159.602c-34.8 0-62.8-28-62.8-62.403 0-34.398 28-62.8 62.8-62.8s62.8 28 62.8 62.402c0 34.398-28 62.8-62.8 62.8zm0-109.204c-26 0-46.8 20.801-46.8 46.403 0 25.597 20.8 46.8 46.8 46.8s46.8-20.8 46.8-46.402c0-25.597-20.8-46.8-46.8-46.8zm0 0" opacity="1" data-original="#173851" class=""></path></g></svg>