<svg xmlns="http://www.w3.org/2000/svg" version="1.1" xmlns:xlink="http://www.w3.org/1999/xlink" width="512" height="512" x="0" y="0" viewBox="0 0 48 48" style="enable-background:new 0 0 512 512" xml:space="preserve" class=""><g><g data-name="21 - 30"><g data-name="Student Exchange"><path d="M38.825 21.836A14.568 14.568 0 0 1 39 24a14.911 14.911 0 0 1-2.941 8.894l-.58-1.94a2 2 0 0 0-.5-.834l-1.643-1.643a2.007 2.007 0 0 1-.551-1.02l-.566-2.866a2 2 0 0 0-.551-1.02l-.842-.842a2 2 0 0 1-.251-2.518 1.921 1.921 0 0 1 .16-.177 10.948 10.948 0 0 1-4.056-12.8A16.891 16.891 0 0 0 7.231 26.677a10.875 10.875 0 0 1 8.674.488v-1.586a1.847 1.847 0 0 0-.543-1.312l-1.578-1.578a1.851 1.851 0 0 0-.721-.446l-1.133-.38a1.841 1.841 0 0 1-1.174-1.174l-.275-.818a1.822 1.822 0 0 0-.612-.865 15.02 15.02 0 0 1 9.205-9.161l.571.409a1.848 1.848 0 0 1 .68 2.1l-.235.712a1.868 1.868 0 0 1-.445.721l-1.579 1.578a1.851 1.851 0 0 0-.542 1.312v.89a1.847 1.847 0 0 1-.543 1.312 1.858 1.858 0 0 0-.542 1.311 1.837 1.837 0 0 0 .308 1.028l.089.13a1.846 1.846 0 0 0 1.91.793l2.016-.405a1.851 1.851 0 0 1 1.473.332l2.226 1.676a1.909 1.909 0 0 1 .543.648l.826 1.651a1.86 1.86 0 0 1-.349 2.145l-1.748 1.749a1.849 1.849 0 0 0-.543 1.311v3.093a1.845 1.845 0 0 1-.825 1.546l-.408.27c.022.28.043.56.043.846a10.955 10.955 0 0 1-.677 3.769 16.891 16.891 0 0 0 19.446-19.449 10.876 10.876 0 0 1-1.944.513Z" fill="#ffffff" opacity="1" data-original="#000000" class=""></path><path d="M3.059 26.48a1 1 0 0 1-1-.918A21.244 21.244 0 0 1 2 24 22.025 22.025 0 0 1 24 2c.527 0 1.045.021 1.562.063a1 1 0 1 1-.162 1.994A17.078 17.078 0 0 0 24 4 20.023 20.023 0 0 0 4 24c0 .473.019.936.057 1.4a1 1 0 0 1-.915 1.079ZM24 46a19.7 19.7 0 0 1-1.562-.062 1 1 0 0 1 .164-2c.462.038.925.057 1.4.057A20.023 20.023 0 0 0 44 24c0-.473-.019-.936-.057-1.4a1 1 0 0 1 1.994-.164c.042.517.063 1.035.063 1.562A22.025 22.025 0 0 1 24 46ZM37 2a9 9 0 1 0 9 9 9 9 0 0 0-9-9Zm0 3.781a3.094 3.094 0 1 1-3.094 3.094A3.094 3.094 0 0 1 37 5.781ZM37 18a6.973 6.973 0 0 1-5.157-2.278 5.566 5.566 0 0 1 10.314 0A6.973 6.973 0 0 1 37 18ZM11 28a9 9 0 1 0 9 9 9 9 0 0 0-9-9Zm0 3.781a3.094 3.094 0 1 1-3.094 3.094A3.094 3.094 0 0 1 11 31.781ZM11 44a6.973 6.973 0 0 1-5.157-2.278 5.566 5.566 0 0 1 10.314 0A6.973 6.973 0 0 1 11 44Z" fill="#ffffff" opacity="1" data-original="#000000" class=""></path></g></g></g></svg>