<svg xmlns="http://www.w3.org/2000/svg" version="1.1" xmlns:xlink="http://www.w3.org/1999/xlink" width="512" height="512" x="0" y="0" viewBox="0 0 48 48" style="enable-background:new 0 0 512 512" xml:space="preserve" class=""><g><g data-name="THR (money in envelope)"><path d="M1 23c0 22.83-.13 21.42.3 22.29l13.37-13.38ZM24 38l-7.61-5L2.71 46.7c.88.43-2.53.3 41.29.3a3.09 3.09 0 0 0 1.29-.29L31.61 33ZM33.33 31.91l13.38 13.38c.41-.9.29.52.29-22.29Z" fill="#ffffff" opacity="1" data-original="#000000" class=""></path><path d="M35 28.44V1H13v27.44l11 7.17ZM16 7a1 1 0 0 1 1-1 1 1 0 0 0 1-1 1 1 0 0 1 1-1h10a1 1 0 0 1 1 1 1 1 0 0 0 1 1 1 1 0 0 1 1 1v6a1 1 0 0 1-2 0V7.83A3 3 0 0 1 28.17 6h-8.34A3 3 0 0 1 18 7.83V13a1 1 0 0 1-2 0Zm0 15a8 8 0 1 1 8 8 8 8 0 0 1-8-8Z" fill="#ffffff" opacity="1" data-original="#000000" class=""></path><circle cx="24" cy="22" r="6" fill="#ffffff" opacity="1" data-original="#000000" class=""></circle><path d="M46.2 7.11 37 4.65v3.1l2.63.7a1 1 0 0 1 .71 1.23 1 1 0 0 0 .7 1.23 1 1 0 0 1 .71 1.22l-1.55 5.79a1 1 0 0 1-1.94-.52l1.34-5a3.07 3.07 0 0 1-1.29-2.24L37 9.82v17.31l4.65-3ZM6.35 24.11l4.65 3V9.82l-1.31.35a3.07 3.07 0 0 1-1.29 2.24l1.34 5a1 1 0 0 1-1.94.52l-1.55-5.8A1 1 0 0 1 7 10.91a1 1 0 0 0 .7-1.23 1 1 0 0 1 .71-1.23l2.59-.7v-3.1L1.8 7.11Z" fill="#ffffff" opacity="1" data-original="#000000" class=""></path></g></g></svg>