<svg width="211" height="89" viewBox="0 0 211 89" fill="none" xmlns="http://www.w3.org/2000/svg">
<path d="M2.25 1C2.25 0.585787 1.91421 0.25 1.5 0.25C1.08579 0.25 0.75 0.585786 0.75 0.999999L2.25 1ZM115.943 51H116.693C116.693 50.8894 116.669 50.7801 116.622 50.68L115.943 51ZM210.943 73L202.408 71.5358L205.408 79.6599L210.943 73ZM0.826555 4.93906C0.842809 5.35296 1.19151 5.67531 1.60541 5.65906C2.0193 5.6428 2.34165 5.2941 2.3254 4.8802L0.826555 4.93906ZM2.93887 12.4804C2.88788 12.0693 2.51331 11.7774 2.10224 11.8284C1.69118 11.8794 1.39929 12.254 1.45028 12.665L2.93887 12.4804ZM2.75885 20.3123C2.84807 20.7168 3.2483 20.9724 3.65279 20.8832C4.05728 20.794 4.31286 20.3937 4.22364 19.9892L2.75885 20.3123ZM6.23692 27.3271C6.10665 26.9339 5.68229 26.7208 5.2891 26.851C4.8959 26.9813 4.68276 27.4057 4.81304 27.7988L6.23692 27.3271ZM7.65475 35.0243C7.82767 35.4007 8.27297 35.5656 8.64937 35.3927C9.02576 35.2198 9.19072 34.7745 9.0178 34.3981L7.65475 35.0243ZM12.5785 41.0992C12.3631 40.7454 11.9017 40.6332 11.5479 40.8486C11.1941 41.064 11.0819 41.5255 11.2973 41.8792L12.5785 41.0992ZM15.738 48.2804C15.994 48.606 16.4655 48.6624 16.7912 48.4064C17.1168 48.1504 17.1732 47.6789 16.9172 47.3533L15.738 48.2804ZM21.9656 53.0427C21.6728 52.7497 21.1979 52.7494 20.9049 53.0422C20.6119 53.3349 20.6116 53.8098 20.9044 54.1028L21.9656 53.0427ZM26.7085 59.2753C27.033 59.5327 27.5047 59.4783 27.7622 59.1538C28.0196 58.8293 27.9653 58.3576 27.6408 58.1002L26.7085 59.2753ZM33.8555 62.4913C33.5046 62.2711 33.0417 62.377 32.8215 62.7278C32.6013 63.0786 32.7072 63.5415 33.058 63.7617L33.8555 62.4913ZM39.8523 67.5428C40.2242 67.7252 40.6736 67.5716 40.856 67.1998C41.0384 66.8279 40.8848 66.3785 40.513 66.1961L39.8523 67.5428ZM47.5111 69.2058C47.123 69.061 46.6911 69.2582 46.5463 69.6463C46.4015 70.0344 46.5987 70.4664 46.9868 70.6112L47.5111 69.2058ZM54.3866 72.9764C54.7867 73.0837 55.198 72.8465 55.3054 72.4464C55.4128 72.0464 55.1755 71.635 54.7754 71.5276L54.3866 72.9764ZM62.2277 73.1617C61.8194 73.0917 61.4317 73.366 61.3618 73.7742C61.2918 74.1825 61.5661 74.5702 61.9743 74.6401L62.2277 73.1617ZM69.6728 75.5959C70.0858 75.6278 70.4464 75.3189 70.4783 74.9059C70.5102 74.4929 70.2013 74.1323 69.7883 74.1004L69.6728 75.5959ZM77.421 74.3238C77.0069 74.3319 76.6777 74.6741 76.6858 75.0883C76.6939 75.5024 77.0362 75.8316 77.4503 75.8235L77.421 74.3238ZM85.1931 75.2719C85.6041 75.2204 85.8955 74.8455 85.844 74.4345C85.7925 74.0235 85.4175 73.7321 85.0065 73.7836L85.1931 75.2719ZM92.4916 72.3903C92.09 72.4917 91.8466 72.8994 91.9479 73.301C92.0493 73.7027 92.457 73.9461 92.8587 73.8447L92.4916 72.3903ZM100.274 71.3814C100.655 71.2197 100.833 70.7794 100.671 70.3981C100.51 70.0167 100.069 69.8387 99.6881 70.0004L100.274 71.3814ZM106.29 66.3902C105.951 66.6284 105.87 67.0962 106.108 67.4351C106.346 67.7739 106.814 67.8555 107.153 67.6173L106.29 66.3902ZM112.882 62.1841C113.131 61.8533 113.065 61.383 112.734 61.1338C112.403 60.8846 111.933 60.9507 111.683 61.2816L112.882 62.1841ZM114.795 54.6635C114.705 55.0677 114.959 55.4686 115.363 55.5589C115.768 55.6491 116.169 55.3946 116.259 54.9903L114.795 54.6635ZM114.126 47.0638C113.819 46.7854 113.345 46.8082 113.066 47.1148C112.788 47.4215 112.811 47.8958 113.117 48.1743L114.126 47.0638ZM107.432 49.6765C107.665 49.3339 107.576 48.8674 107.233 48.6348C106.89 48.4021 106.424 48.4912 106.191 48.8339L107.432 49.6765ZM103.433 56.8505C103.382 57.2615 103.673 57.6364 104.084 57.6879C104.495 57.7393 104.87 57.4478 104.921 57.0368L103.433 56.8505ZM105.248 64.9371C105.164 64.5315 104.768 64.2706 104.362 64.3544C103.956 64.4383 103.696 64.8351 103.779 65.2407L105.248 64.9371ZM106.798 73.0686C107.009 73.4252 107.469 73.5435 107.825 73.3328C108.182 73.122 108.3 72.6621 108.09 72.3055L106.798 73.0686ZM113.162 78.3752C112.85 78.1026 112.376 78.1344 112.104 78.4463C111.831 78.7581 111.863 79.232 112.175 79.5046L113.162 78.3752ZM119.156 84.0861C119.528 84.2678 119.977 84.1135 120.159 83.7413C120.341 83.3691 120.186 82.92 119.814 82.7382L119.156 84.0861ZM127.327 85.4869C126.926 85.3814 126.516 85.6205 126.41 86.021C126.305 86.4216 126.544 86.8318 126.945 86.9374L127.327 85.4869ZM135.13 88.4428C135.541 88.4897 135.913 88.1941 135.96 87.7825C136.007 87.371 135.711 86.9993 135.3 86.9524L135.13 88.4428ZM143.375 87.4208C142.961 87.4178 142.623 87.751 142.62 88.1652C142.617 88.5794 142.95 88.9177 143.364 88.9208L143.375 87.4208ZM151.572 88.6362C151.985 88.6058 152.295 88.2463 152.265 87.8332C152.234 87.4201 151.875 87.1098 151.462 87.1402L151.572 88.6362ZM159.548 86.2757C159.137 86.3324 158.851 86.7109 158.907 87.1212C158.964 87.5316 159.343 87.8183 159.753 87.7616L159.548 86.2757ZM167.891 86.4151C168.298 86.3373 168.565 85.9444 168.487 85.5376C168.409 85.1308 168.017 84.864 167.61 84.9418L167.891 86.4151ZM175.61 83.2284C175.207 83.3235 174.957 83.7274 175.052 84.1306C175.147 84.5337 175.551 84.7834 175.954 84.6883L175.61 83.2284ZM183.824 82.6791C184.223 82.5697 184.459 82.1572 184.349 81.7577C184.24 81.3582 183.827 81.123 183.428 81.2324L183.824 82.6791ZM191.241 78.9603C190.845 79.0819 190.623 79.5015 190.744 79.8975C190.866 80.2934 191.286 80.5158 191.682 80.3942L191.241 78.9603ZM199.582 77.8483C199.974 77.716 200.185 77.2906 200.053 76.8981C199.921 76.5055 199.495 76.2945 199.103 76.4268L199.582 77.8483ZM206.727 73.7573C206.338 73.8986 206.137 74.3288 206.278 74.7182C206.419 75.1075 206.85 75.3086 207.239 75.1673L206.727 73.7573ZM0.75 0.999999C0.749999 2.33282 0.775767 3.64579 0.826555 4.93906L2.3254 4.8802C2.27539 3.60683 2.25 2.31349 2.25 1L0.75 0.999999ZM1.45028 12.665C1.77781 15.3054 2.21659 17.8539 2.75885 20.3123L4.22364 19.9892C3.6917 17.5776 3.26077 15.0753 2.93887 12.4804L1.45028 12.665ZM4.81304 27.7988C5.64688 30.3156 6.5977 32.7233 7.65475 35.0243L9.0178 34.3981C7.98405 32.1478 7.05349 29.7917 6.23692 27.3271L4.81304 27.7988ZM11.2973 41.8792C12.6709 44.1351 14.1558 46.2678 15.738 48.2804L16.9172 47.3533C15.3714 45.3871 13.9207 43.3035 12.5785 41.0992L11.2973 41.8792ZM20.9044 54.1028C22.7538 55.954 24.6938 57.6769 26.7085 59.2753L27.6408 58.1002C25.67 56.5366 23.7731 54.852 21.9656 53.0427L20.9044 54.1028ZM33.058 63.7617C35.267 65.1482 37.5375 66.4072 39.8523 67.5428L40.513 66.1961C38.2435 65.0828 36.0187 63.8491 33.8555 62.4913L33.058 63.7617ZM46.9868 70.6112C49.4311 71.5231 51.9039 72.31 54.3866 72.9764L54.7754 71.5276C52.3374 70.8733 49.9099 70.1007 47.5111 69.2058L46.9868 70.6112ZM61.9743 74.6401C64.5563 75.0825 67.1294 75.3995 69.6728 75.5959L69.7883 74.1004C67.2909 73.9075 64.7638 73.5962 62.2277 73.1617L61.9743 74.6401ZM77.4503 75.8235C80.0979 75.7717 82.6874 75.586 85.1931 75.2719L85.0065 73.7836C82.5548 74.0909 80.0178 74.273 77.421 74.3238L77.4503 75.8235ZM92.8587 73.8447C95.4862 73.1816 97.9711 72.358 100.274 71.3814L99.6881 70.0004C97.4628 70.9442 95.0517 71.7442 92.4916 72.3903L92.8587 73.8447ZM107.153 67.6173C109.42 66.0233 111.357 64.2082 112.882 62.1841L111.683 61.2816C110.266 63.1627 108.449 64.8723 106.29 66.3902L107.153 67.6173ZM116.259 54.9903C116.545 53.7072 116.693 52.3759 116.693 51H115.193C115.193 52.2676 115.057 53.4892 114.795 54.6635L116.259 54.9903ZM116.622 50.68C115.871 49.0875 115.032 47.8871 114.126 47.0638L113.117 48.1743C113.834 48.8252 114.568 49.8426 115.265 51.32L116.622 50.68ZM106.191 48.8339C104.834 50.8325 103.834 53.6501 103.433 56.8505L104.921 57.0368C105.3 54.0145 106.237 51.4362 107.432 49.6765L106.191 48.8339ZM103.779 65.2407C104.32 67.8554 105.291 70.5175 106.798 73.0686L108.09 72.3055C106.672 69.9059 105.758 67.4006 105.248 64.9371L103.779 65.2407ZM112.175 79.5046C114.124 81.2078 116.436 82.7576 119.156 84.0861L119.814 82.7382C117.207 81.465 115.007 79.9873 113.162 78.3752L112.175 79.5046ZM126.945 86.9374C129.435 87.5938 132.158 88.1039 135.13 88.4428L135.3 86.9524C132.393 86.6211 129.742 86.1235 127.327 85.4869L126.945 86.9374ZM143.364 88.9208C145.946 88.94 148.679 88.8488 151.572 88.6362L151.462 87.1402C148.607 87.3501 145.914 87.4398 143.375 87.4208L143.364 88.9208ZM159.753 87.7616C162.354 87.4025 165.065 86.9557 167.891 86.4151L167.61 84.9418C164.807 85.4778 162.121 85.9203 159.548 86.2757L159.753 87.7616ZM175.954 84.6883C178.494 84.0891 181.116 83.4205 183.824 82.6791L183.428 81.2324C180.736 81.9693 178.131 82.6334 175.61 83.2284L175.954 84.6883ZM191.682 80.3942C194.244 79.6072 196.877 78.7594 199.582 77.8483L199.103 76.4268C196.411 77.3338 193.791 78.1774 191.241 78.9603L191.682 80.3942Z" fill="url(#paint0_linear_8794_19437)"/>
<defs>
<linearGradient id="paint0_linear_8794_19437" x1="1.19387" y1="5.48685" x2="218.899" y2="48.0633" gradientUnits="userSpaceOnUse">
<stop offset="0.145833" stop-color="#EE2C3C"/>
<stop offset="0.651042" stop-color="#C5135D"/>
<stop offset="1" stop-color="#6A11B0"/>
</linearGradient>
</defs>
</svg>
