<svg width="215" height="88" viewBox="0 0 215 88" fill="none" xmlns="http://www.w3.org/2000/svg">
<path d="M210.443 0L214.627 7.58272L205.968 7.41445L210.443 0ZM95.9999 50H95.2499C95.2499 49.8894 95.2744 49.7801 95.3216 49.68L95.9999 50ZM0.736374 72.7021C0.348602 72.5565 0.152267 72.1242 0.297852 71.7364C0.443451 71.3486 0.875839 71.1523 1.26363 71.2979L0.736374 72.7021ZM211.117 3.93906C211.101 4.35296 210.752 4.67531 210.338 4.65906C209.924 4.6428 209.602 4.2941 209.618 3.8802L211.117 3.93906ZM209.004 11.4804C209.055 11.0693 209.43 10.7774 209.841 10.8284C210.252 10.8794 210.544 11.254 210.493 11.665L209.004 11.4804ZM209.185 19.3123C209.095 19.7168 208.695 19.9724 208.291 19.8832C207.886 19.794 207.631 19.3937 207.72 18.9892L209.185 19.3123ZM205.706 26.3271C205.837 25.9339 206.261 25.7208 206.654 25.851C207.047 25.9813 207.261 26.4057 207.13 26.7988L205.706 26.3271ZM204.289 34.0243C204.116 34.4007 203.67 34.5656 203.294 34.3927C202.918 34.2198 202.753 33.7745 202.926 33.3981L204.289 34.0243ZM199.365 40.0992C199.58 39.7454 200.042 39.6332 200.395 39.8486C200.749 40.064 200.861 40.5255 200.646 40.8792L199.365 40.0992ZM196.205 47.2804C195.949 47.606 195.478 47.6624 195.152 47.4064C194.827 47.1504 194.77 46.6789 195.026 46.3533L196.205 47.2804ZM189.978 52.0427C190.271 51.7497 190.745 51.7494 191.038 52.0422C191.331 52.3349 191.332 52.8098 191.039 53.1028L189.978 52.0427ZM185.235 58.2753C184.91 58.5327 184.439 58.4783 184.181 58.1538C183.924 57.8293 183.978 57.3576 184.303 57.1002L185.235 58.2753ZM178.088 61.4913C178.439 61.2711 178.902 61.377 179.122 61.7278C179.342 62.0786 179.236 62.5415 178.885 62.7617L178.088 61.4913ZM172.091 66.5428C171.719 66.7252 171.27 66.5716 171.087 66.1998C170.905 65.8279 171.059 65.3785 171.43 65.1961L172.091 66.5428ZM164.432 68.2058C164.82 68.061 165.252 68.2582 165.397 68.6463C165.542 69.0344 165.345 69.4664 164.957 69.6112L164.432 68.2058ZM157.557 71.9764C157.157 72.0837 156.745 71.8465 156.638 71.4464C156.531 71.0464 156.768 70.635 157.168 70.5276L157.557 71.9764ZM149.716 72.1617C150.124 72.0917 150.512 72.366 150.582 72.7742C150.652 73.1825 150.377 73.5702 149.969 73.6401L149.716 72.1617ZM142.271 74.5959C141.858 74.6278 141.497 74.3189 141.465 73.9059C141.433 73.4929 141.742 73.1323 142.155 73.1004L142.271 74.5959ZM134.522 73.3238C134.937 73.3319 135.266 73.6741 135.258 74.0883C135.249 74.5024 134.907 74.8316 134.493 74.8235L134.522 73.3238ZM126.75 74.2719C126.339 74.2204 126.048 73.8455 126.099 73.4345C126.151 73.0235 126.526 72.7321 126.937 72.7836L126.75 74.2719ZM119.452 71.3903C119.853 71.4917 120.097 71.8994 119.995 72.301C119.894 72.7027 119.486 72.9461 119.085 72.8447L119.452 71.3903ZM111.67 70.3814C111.288 70.2197 111.11 69.7794 111.272 69.3981C111.434 69.0167 111.874 68.8387 112.255 69.0004L111.67 70.3814ZM105.653 65.3902C105.992 65.6284 106.073 66.0962 105.835 66.4351C105.597 66.7739 105.129 66.8555 104.79 66.6173L105.653 65.3902ZM99.0618 61.1841C98.8126 60.8533 98.8787 60.383 99.2095 60.1338C99.5404 59.8846 100.011 59.9507 100.26 60.2816L99.0618 61.1841ZM97.1484 53.6635C97.2387 54.0677 96.9841 54.4686 96.5799 54.5589C96.1756 54.6491 95.7747 54.3946 95.6845 53.9903L97.1484 53.6635ZM97.8176 46.0638C98.1242 45.7854 98.5985 45.8082 98.877 46.1148C99.1555 46.4215 99.1326 46.8958 98.826 47.1743L97.8176 46.0638ZM104.511 48.6765C104.279 48.3339 104.368 47.8674 104.711 47.6348C105.053 47.4021 105.52 47.4912 105.752 47.8339L104.511 48.6765ZM108.51 55.8505C108.562 56.2615 108.27 56.6364 107.859 56.6879C107.448 56.7393 107.073 56.4478 107.022 56.0368L108.51 55.8505ZM106.695 63.9371C106.779 63.5315 107.176 63.2706 107.581 63.3544C107.987 63.4383 108.248 63.8351 108.164 64.2407L106.695 63.9371ZM105.145 72.0686C104.934 72.4252 104.475 72.5435 104.118 72.3328C103.761 72.122 103.643 71.6621 103.854 71.3055L105.145 72.0686ZM98.7812 77.3752C99.0931 77.1026 99.5669 77.1344 99.8395 77.4463C100.112 77.7581 100.08 78.232 99.7684 78.5046L98.7812 77.3752ZM92.7875 83.0861C92.4153 83.2678 91.9662 83.1135 91.7845 82.7413C91.6027 82.3691 91.757 81.92 92.1292 81.7382L92.7875 83.0861ZM84.6166 84.4869C85.0171 84.3814 85.4274 84.6205 85.5329 85.021C85.6385 85.4216 85.3994 85.8318 84.9988 85.9374L84.6166 84.4869ZM76.8138 87.4428C76.4022 87.4897 76.0305 87.1941 75.9836 86.7825C75.9367 86.371 76.2323 85.9993 76.6438 85.9524L76.8138 87.4428ZM68.5682 86.4208C68.9824 86.4178 69.3207 86.751 69.3238 87.1652C69.3269 87.5794 68.9936 87.9177 68.5794 87.9208L68.5682 86.4208ZM60.3717 87.6362C59.9586 87.6058 59.6484 87.2463 59.6787 86.8332C59.7091 86.4201 60.0686 86.1098 60.4817 86.1402L60.3717 87.6362ZM52.3957 85.2757C52.806 85.3324 53.0927 85.7109 53.036 86.1212C52.9794 86.5316 52.6008 86.8183 52.1905 86.7616L52.3957 85.2757ZM44.0519 85.4151C43.6451 85.3373 43.3783 84.9444 43.4561 84.5376C43.5339 84.1308 43.9268 83.864 44.3337 83.9418L44.0519 85.4151ZM36.3337 82.2284C36.7368 82.3235 36.9865 82.7274 36.8914 83.1306C36.7962 83.5337 36.3923 83.7834 35.9892 83.6883L36.3337 82.2284ZM28.1195 81.6791C27.72 81.5697 27.4848 81.1572 27.5942 80.7577C27.7036 80.3582 28.1161 80.123 28.5156 80.2324L28.1195 81.6791ZM20.7022 77.9603C21.0981 78.0819 21.3205 78.5015 21.1989 78.8975C21.0774 79.2934 20.6578 79.5158 20.2618 79.3942L20.7022 77.9603ZM12.3617 76.8483C11.9691 76.716 11.7581 76.2906 11.8904 75.8981C12.0226 75.5055 12.448 75.2945 12.8406 75.4268L12.3617 76.8483ZM5.21617 72.7573C5.60553 72.8986 5.80663 73.3288 5.66531 73.7182C5.524 74.1075 5.09381 74.3086 4.70445 74.1673L5.21617 72.7573ZM210.493 11.665C210.166 14.3054 209.727 16.8539 209.185 19.3123L207.72 18.9892C208.252 16.5776 208.683 14.0753 209.004 11.4804L210.493 11.665ZM207.13 26.7988C206.296 29.3156 205.346 31.7233 204.289 34.0243L202.926 33.3981C203.959 31.1478 204.89 28.7917 205.706 26.3271L207.13 26.7988ZM200.646 40.8792C199.272 43.1351 197.788 45.2678 196.205 47.2804L195.026 46.3533C196.572 44.3871 198.023 42.3035 199.365 40.0992L200.646 40.8792ZM191.039 53.1028C189.19 54.954 187.25 56.6769 185.235 58.2753L184.303 57.1002C186.273 55.5366 188.17 53.852 189.978 52.0427L191.039 53.1028ZM178.885 62.7617C176.676 64.1482 174.406 65.4072 172.091 66.5428L171.43 65.1961C173.7 64.0828 175.925 62.8491 178.088 61.4913L178.885 62.7617ZM164.957 69.6112C162.512 70.5231 160.039 71.31 157.557 71.9764L157.168 70.5276C159.606 69.8733 162.033 69.1007 164.432 68.2058L164.957 69.6112ZM149.969 73.6401C147.387 74.0825 144.814 74.3995 142.271 74.5959L142.155 73.1004C144.652 72.9075 147.18 72.5962 149.716 72.1617L149.969 73.6401ZM134.493 74.8235C131.845 74.7717 129.256 74.586 126.75 74.2719L126.937 72.7836C129.389 73.0909 131.926 73.273 134.522 73.3238L134.493 74.8235ZM119.085 72.8447C116.457 72.1816 113.972 71.358 111.67 70.3814L112.255 69.0004C114.481 69.9442 116.892 70.7442 119.452 71.3903L119.085 72.8447ZM104.79 66.6173C102.523 65.0233 100.587 63.2082 99.0618 61.1841L100.26 60.2816C101.677 62.1627 103.494 63.8723 105.653 65.3902L104.79 66.6173ZM95.6845 53.9903C95.398 52.7072 95.2499 51.3759 95.2499 50H96.7499C96.7499 51.2676 96.8863 52.4892 97.1484 53.6635L95.6845 53.9903ZM95.3216 49.68C96.0728 48.0875 96.911 46.8871 97.8176 46.0638L98.826 47.1743C98.1092 47.8252 97.3752 48.8426 96.6783 50.32L95.3216 49.68ZM105.752 47.8339C107.109 49.8325 108.11 52.6501 108.51 55.8505L107.022 56.0368C106.644 53.0145 105.706 50.4362 104.511 48.6765L105.752 47.8339ZM108.164 64.2407C107.624 66.8554 106.653 69.5175 105.145 72.0686L103.854 71.3055C105.272 68.9059 106.186 66.4006 106.695 63.9371L108.164 64.2407ZM99.7684 78.5046C97.8198 80.2078 95.5073 81.7576 92.7875 83.0861L92.1292 81.7382C94.736 80.465 96.9368 78.9873 98.7812 77.3752L99.7684 78.5046ZM84.9988 85.9374C82.5084 86.5938 79.7857 87.1039 76.8138 87.4428L76.6438 85.9524C79.55 85.6211 82.2014 85.1235 84.6166 84.4869L84.9988 85.9374ZM68.5794 87.9208C65.9975 87.94 63.2641 87.8488 60.3717 87.6362L60.4817 86.1402C63.3365 86.3501 66.0294 86.4398 68.5682 86.4208L68.5794 87.9208ZM52.1905 86.7616C49.5899 86.4025 46.8784 85.9557 44.0519 85.4151L44.3337 83.9418C47.1361 84.4778 49.8221 84.9203 52.3957 85.2757L52.1905 86.7616ZM35.9892 83.6883C33.4497 83.0891 30.8273 82.4205 28.1195 81.6791L28.5156 80.2324C31.2071 80.9693 33.8123 81.6334 36.3337 82.2284L35.9892 83.6883ZM20.2618 79.3942C17.699 78.6072 15.0662 77.7594 12.3617 76.8483L12.8406 75.4268C15.5327 76.3338 18.1527 77.1774 20.7022 77.9603L20.2618 79.3942ZM4.70445 74.1673C3.39737 73.6929 2.07474 73.2046 0.736374 72.7021L1.26363 71.2979C2.59689 71.7984 3.91435 72.2848 5.21617 72.7573L4.70445 74.1673Z" fill="url(#paint0_linear_8794_19438)"/>
<defs>
<linearGradient id="paint0_linear_8794_19438" x1="210.749" y1="4.48685" x2="-6.95536" y2="47.0633" gradientUnits="userSpaceOnUse">
<stop offset="0.145833" stop-color="#EE2C3C"/>
<stop offset="0.651042" stop-color="#C5135D"/>
<stop offset="1" stop-color="#6A11B0"/>
</linearGradient>
</defs>
</svg>
