<svg version="1.0" xmlns="http://www.w3.org/2000/svg"
 width="100.000000pt" height="50.000000pt" viewBox="0 0 499.000000 180.000000"
 preserveAspectRatio="xMidYMid meet">
<path fill="#47704C" opacity="1.000000" stroke="none" 
	d="
M321.000000,181.000000 
	C214.000015,181.000000 107.500038,181.000000 1.000043,181.000000 
	C1.000029,121.000031 1.000029,61.000061 1.000014,1.000067 
	C167.333267,1.000045 333.666534,1.000045 499.999878,1.000022 
	C499.999908,60.999928 499.999908,120.999855 499.999939,180.999893 
	C440.500000,181.000000 381.000000,181.000000 321.000000,181.000000 
M54.566902,75.986206 
	C61.128746,74.503548 67.958870,73.457146 71.129143,65.433876 
	C74.875710,58.560101 75.465401,51.705841 70.770447,44.258110 
	C66.396957,39.038326 61.253521,35.435375 53.239170,36.209194 
	C46.052250,37.264980 40.134525,40.169655 36.749123,47.770733 
	C33.723495,54.053116 33.764912,60.138248 38.238861,66.590469 
	C41.299927,73.191238 47.267643,75.000259 54.566902,75.986206 
M14.774414,79.231903 
	C14.774414,79.231903 14.835585,79.321388 14.999166,79.955399 
	C21.016472,91.156960 31.219479,97.072845 42.622536,101.067726 
	C46.123856,102.294365 50.266857,101.689354 54.967262,101.978592 
	C71.666313,101.723083 89.269623,90.755875 93.915848,78.168396 
	C88.254158,75.074646 82.537727,71.950974 77.743454,69.331207 
	C73.142097,72.830658 69.526993,76.237915 65.317070,78.572540 
	C61.981289,80.422394 57.916203,80.957108 53.427120,81.770348 
	C44.387638,80.852699 37.358681,76.575493 31.882227,68.444160 
	C26.971022,60.013168 27.958008,51.525017 32.065788,42.420078 
	C36.446087,33.929733 44.090141,30.889723 53.800529,30.129307 
	C63.943989,30.013531 71.253189,35.091438 77.027649,43.344212 
	C82.855370,39.712215 88.405411,36.253281 94.349602,32.548698 
	C84.513634,17.981110 71.796700,9.685447 53.249401,10.041139 
	C36.023407,10.419374 23.349426,18.441137 14.113572,33.479149 
	C5.973169,48.348915 6.266150,63.212273 14.217879,78.495590 
	C14.305088,78.793831 14.491981,79.003166 14.774414,79.231903 
M87.500000,128.992096 
	C68.841476,128.992477 50.182919,128.971008 31.524462,129.005829 
	C25.518780,129.017029 25.007673,129.584457 24.996796,135.631607 
	C24.979715,145.127457 24.989811,154.623367 24.992851,164.119247 
	C24.995375,172.003601 24.998219,172.007278 33.026096,172.007324 
	C182.627899,172.008072 332.229706,172.007889 481.831512,172.007782 
	C482.831085,172.007782 483.838959,171.922180 484.828735,172.020264 
	C488.749756,172.408752 490.133820,170.636475 490.062073,166.772293 
	C489.888885,157.446243 490.009308,148.114761 490.007202,138.785477 
	C490.005219,129.917877 489.093933,128.992950 480.330109,128.992874 
	C349.720062,128.991760 219.110031,128.992081 87.500000,128.992096 
M400.374939,37.998718 
	C396.877869,38.000633 393.377502,38.096836 389.884827,37.974041 
	C387.187378,37.879208 385.960693,38.813538 385.971252,41.685478 
	C386.040344,60.502701 386.054443,79.320557 385.957245,98.137543 
	C385.940735,101.333794 387.368683,102.127510 390.207581,102.031639 
	C394.199646,101.896843 398.212280,101.802437 402.192627,102.057678 
	C405.887421,102.294586 407.170013,100.973389 407.071503,97.235268 
	C406.847870,88.748352 406.928223,80.250534 407.029510,71.758873 
	C407.107666,65.208244 411.166809,58.604214 415.690887,57.276230 
	C422.430664,55.297859 428.850647,60.681095 428.964233,68.657959 
	C429.101746,78.314568 429.090698,87.975845 428.953094,97.632378 
	C428.908051,100.794792 429.863739,102.197952 433.207581,102.047203 
	C437.694672,101.844910 442.203827,101.854378 446.691895,102.045547 
	C449.929413,102.183456 451.097015,100.995079 451.046783,97.728462 
	C450.898315,88.072266 450.909058,78.411072 451.033081,68.754097 
	C451.120575,61.941208 456.190582,56.930103 462.583527,57.007683 
	C468.001373,57.073429 471.969818,62.027447 471.991547,68.851822 
	C472.021271,78.177216 472.130615,87.505524 471.935089,96.826897 
	C471.856964,100.550270 472.716461,102.411385 476.901886,102.072884 
	C481.038116,101.738365 485.230255,101.837280 489.382996,102.044144 
	C492.762299,102.212479 494.117645,101.135712 494.066101,97.543930 
	C493.889343,85.223495 494.512543,72.872406 493.879852,60.581963 
	C492.799622,39.598743 475.310242,33.040802 459.269989,40.090511 
	C455.112762,41.917618 451.897766,45.888641 447.908051,49.154800 
	C444.575714,41.009544 437.178497,37.839573 428.960297,37.416023 
	C420.821350,36.996563 413.148895,39.503777 407.235016,47.117966 
	C406.778198,42.094009 408.488586,36.664490 400.374939,37.998718 
M146.999283,57.417099 
	C146.992203,59.581226 147.387466,61.839760 146.905807,63.892532 
	C145.164307,71.314903 143.247543,76.872734 133.238037,76.050850 
	C127.214706,75.556267 124.982826,72.219215 125.047684,63.362331 
	C125.110611,54.767445 125.061340,46.171730 125.061340,37.441868 
	C117.303619,37.441868 110.284248,37.441868 102.999908,37.441868 
	C102.999908,49.189369 103.317200,60.507263 102.927361,71.800751 
	C102.304573,89.842567 117.042343,99.206566 133.084793,95.397720 
	C137.921173,94.249458 142.244537,90.940498 146.683273,88.682175 
	C148.865662,98.601189 143.405746,109.351143 128.919159,106.925308 
	C122.677864,105.880180 116.631561,103.670593 110.214668,101.912766 
	C109.148262,105.041496 108.144440,108.890175 106.535278,112.466484 
	C104.744041,116.447449 106.210175,118.259483 109.938873,119.286446 
	C115.789833,120.897934 121.543228,122.954376 127.470665,124.180946 
	C147.530548,128.331909 169.437225,117.013710 169.110107,91.656754 
	C168.902084,75.531738 169.080887,59.401859 169.055328,43.274208 
	C169.052261,41.335770 168.855392,39.397640 168.740112,37.309933 
	C161.348694,37.309933 154.448273,37.309933 146.999298,37.309933 
	C146.999298,43.882931 146.999298,50.160999 146.999283,57.417099 
M251.974487,61.830250 
	C251.627563,60.557339 251.309723,59.275658 250.929184,58.012875 
	C246.922073,44.715668 236.421432,37.086121 222.412613,36.957287 
	C215.430283,36.893078 209.817993,39.913109 203.831940,45.031990 
	C203.831940,34.066265 203.831940,24.204468 203.831940,14.379771 
	C196.581863,14.379771 190.008881,14.379771 183.341232,14.379771 
	C183.341232,43.665859 183.341232,72.570526 183.341232,101.731071 
	C190.268707,101.731071 196.855011,101.731071 203.650665,101.731071 
	C203.847351,99.701172 204.020340,97.915871 204.206711,95.992622 
	C205.101395,96.478622 206.114380,96.755623 206.734711,97.406731 
	C216.470154,107.625343 239.974503,103.668922 247.436172,90.326744 
	C252.353806,81.533485 253.825455,72.451813 251.974487,61.830250 
M317.021515,45.476841 
	C306.014343,54.524925 305.866272,66.683258 307.705811,79.198753 
	C308.194214,82.521584 309.680634,85.896973 311.447113,88.798790 
	C319.852448,102.606400 333.755096,104.822632 347.794586,103.473343 
	C357.303284,102.559486 366.293884,98.172386 371.666931,88.745491 
	C380.571991,73.121780 377.870453,56.434814 367.205505,46.034714 
	C354.844971,33.981079 331.090515,33.934345 317.021515,45.476841 
M288.152191,42.500259 
	C286.909302,43.617687 285.666412,44.735111 284.191254,46.061367 
	C283.809143,38.000153 283.809143,37.999519 275.994263,37.999329 
	C272.662537,37.999249 269.324005,38.135765 266.001129,37.965092 
	C262.931854,37.807457 261.947357,39.094078 261.960907,42.072590 
	C262.045807,60.729836 262.051849,79.387901 261.957336,98.045052 
	C261.941620,101.153999 263.182709,102.145157 266.118225,102.034409 
	C270.110535,101.883804 274.133301,101.747078 278.105530,102.068054 
	C282.545135,102.426804 284.327362,101.118927 284.110321,96.318062 
	C283.727081,87.839531 283.918274,79.329941 284.037567,70.835716 
	C284.108002,65.819595 286.107605,61.575481 290.991547,59.745007 
	C295.084534,58.210983 299.481079,57.486870 304.945221,56.098793 
	C304.945221,51.171967 305.118042,45.589405 304.776489,40.038494 
	C304.719025,39.104362 302.172394,37.349194 301.231476,37.610981 
	C296.985321,38.792336 292.903015,40.562721 288.152191,42.500259 
z"/>
<path fill="#1C3048" opacity="1.000000" stroke="none" 
	d="
M88.000000,128.992081 
	C219.110031,128.992081 349.720062,128.991760 480.330109,128.992874 
	C489.093933,128.992950 490.005219,129.917877 490.007202,138.785477 
	C490.009308,148.114761 489.888885,157.446243 490.062073,166.772293 
	C490.133820,170.636475 488.749756,172.408752 484.828735,172.020264 
	C483.838959,171.922180 482.831085,172.007782 481.831512,172.007782 
	C332.229706,172.007889 182.627899,172.008072 33.026096,172.007324 
	C24.998219,172.007278 24.995375,172.003601 24.992851,164.119247 
	C24.989811,154.623367 24.979715,145.127457 24.996796,135.631607 
	C25.007673,129.584457 25.518780,129.017029 31.524462,129.005829 
	C50.182919,128.971008 68.841476,128.992477 88.000000,128.992081 
M126.579094,161.002945 
	C128.767838,161.294586 129.970291,160.742844 129.874832,158.126648 
	C129.698868,153.304214 129.750961,148.469299 129.847885,143.642380 
	C129.927658,139.669037 128.040817,139.699295 125.295174,140.911636 
	C125.121124,143.600830 124.964523,146.020416 124.817886,148.286072 
	C122.100288,148.286072 119.837410,148.286072 117.348297,148.286072 
	C117.211945,145.552429 117.089981,143.107239 116.968025,140.662048 
	C116.485031,140.361206 116.002037,140.060364 115.519051,139.759521 
	C114.584900,140.946396 113.130241,142.018341 112.836914,143.346725 
	C112.381111,145.410843 112.715279,147.649475 112.715126,149.814133 
	C112.714882,153.445129 112.715057,157.076126 112.715057,160.753510 
	C114.374290,160.753510 115.617516,160.753510 117.360138,160.753510 
	C117.360138,157.762024 117.360138,155.024292 117.360138,152.361542 
	C120.136948,152.361542 122.406288,152.361542 124.692719,152.361542 
	C125.047340,155.346100 125.372841,158.085510 126.579094,161.002945 
M140.098526,147.634506 
	C140.098969,151.131027 140.196991,154.631042 140.072662,158.123108 
	C139.946198,161.675629 141.756058,161.324127 144.481400,160.410080 
	C144.481400,156.164291 144.481400,152.022095 144.481400,147.632782 
	C149.094940,151.934067 148.785049,160.227051 156.956635,161.312393 
	C156.956635,153.860840 156.956635,147.266098 156.956635,140.340195 
	C155.745041,140.404892 154.010422,140.346741 153.986786,140.520920 
	C153.451187,144.465652 153.102997,148.435822 152.720062,152.396515 
	C148.068649,149.071274 149.036713,140.017685 140.098526,140.299149 
	C140.098526,142.761719 140.098526,144.725235 140.098526,147.634506 
M254.911530,151.446152 
	C256.932159,153.075943 259.808044,154.360825 257.424408,157.806000 
	C253.966873,158.225113 251.198883,157.310745 249.795319,153.771194 
	C247.569336,148.157669 250.977951,143.682220 257.351105,143.631699 
	C258.836029,143.619934 260.315521,142.924362 261.797516,142.543427 
	C256.692780,139.444504 252.755997,139.704498 249.094482,141.999954 
	C244.918869,144.617691 243.226593,150.346420 245.176819,155.262177 
	C247.102921,160.117126 252.978775,162.557251 259.736053,160.905869 
	C265.328949,159.539032 261.648224,154.814453 262.636139,151.755615 
	C262.809143,151.219955 262.445679,150.511032 262.153290,148.921646 
	C259.604004,149.513382 257.259857,150.057495 254.911530,151.446152 
M228.969742,161.008713 
	C234.951202,158.367279 237.159409,154.355713 235.979691,147.925842 
	C235.129333,143.291092 232.274933,140.572067 227.562958,140.071259 
	C221.423996,139.418808 216.801224,143.786133 216.621490,150.263763 
	C216.416412,157.655991 220.201431,161.213837 228.969742,161.008713 
M184.693024,157.104996 
	C188.284927,148.641678 185.479935,141.175781 178.306198,140.105591 
	C173.508179,139.389801 169.219208,141.783295 167.497787,146.137314 
	C165.590332,150.961884 167.070435,157.029114 170.793259,159.646103 
	C174.708557,162.398392 179.986786,161.643494 184.693024,157.104996 
M440.849609,143.778259 
	C440.849609,149.391708 440.849609,155.005157 440.849609,160.814346 
	C444.405029,160.814346 447.577209,161.198318 450.615540,160.724274 
	C455.160431,160.015213 458.015472,157.083969 458.747864,152.451248 
	C459.413361,148.241806 458.894592,143.666168 454.658508,142.198105 
	C450.547791,140.773499 445.767944,141.268646 441.276337,141.021896 
	C441.169128,141.016022 440.996124,142.207001 440.849609,143.778259 
M344.173584,141.541077 
	C341.725037,139.079895 339.982178,139.647400 338.983734,142.831100 
	C337.788208,146.643250 336.683014,150.483719 335.455566,154.590073 
	C331.414642,150.149139 334.286896,141.800018 326.383636,140.553970 
	C327.619049,146.721786 329.378632,152.564819 331.477631,158.283264 
	C331.902649,159.441193 333.689484,160.933105 334.706879,160.832901 
	C336.038391,160.701797 337.863831,159.398682 338.369995,158.150803 
	C340.485321,152.935669 342.186340,147.552475 344.173584,141.541077 
M313.909729,152.693115 
	C317.976593,150.878036 319.252716,147.760956 317.584625,143.747635 
	C316.081451,140.131104 310.286560,139.116104 303.416565,141.052124 
	C303.416565,147.564972 303.416565,154.136627 303.416565,161.086472 
	C305.078827,160.928574 306.446320,160.798660 308.031433,160.648087 
	C308.031433,158.081207 308.031433,155.954239 308.031433,153.642288 
	C309.883698,153.391296 311.504791,153.171646 313.909729,152.693115 
M75.056503,143.816376 
	C76.144905,143.200317 77.233307,142.584259 78.321716,141.968216 
	C77.349586,141.396988 76.407166,140.404221 75.399780,140.333221 
	C72.324394,140.116440 69.223991,140.254517 66.078613,140.254517 
	C66.078613,147.480453 66.078613,154.045700 66.078613,160.679962 
	C70.491165,160.679962 74.662750,160.679962 79.749588,160.679962 
	C77.496544,155.678848 73.049545,159.133377 70.439896,156.976120 
	C70.439896,155.626419 70.439896,154.043549 70.439896,152.189606 
	C73.022087,152.036041 75.433319,151.892639 78.165825,151.730133 
	C77.298195,146.415680 72.800430,150.089996 70.760559,148.178314 
	C70.119225,144.172485 70.119225,144.172485 75.056503,143.816376 
M99.995094,161.141891 
	C101.103683,160.403793 102.212273,159.665680 103.320854,158.927582 
	C103.045967,158.522552 102.771080,158.117538 102.496193,157.712524 
	C102.019363,157.712524 101.541176,157.688873 101.065910,157.716110 
	C95.107010,158.057617 92.290436,156.013763 92.039032,151.156494 
	C91.774605,146.047623 94.400627,143.782394 100.599579,143.547043 
	C101.460358,143.514359 102.292000,142.713989 103.137138,142.268997 
	C102.274498,141.545883 101.499779,140.356476 100.535088,140.174561 
	C93.763474,138.897705 87.691345,143.511703 87.158554,150.149002 
	C86.607864,157.009338 90.893761,160.926605 99.995094,161.141891 
M281.101166,160.753799 
	C283.000031,153.963516 284.898865,147.173233 286.826233,140.280960 
	C280.744659,138.843628 282.526825,146.252090 279.604492,148.342056 
	C276.346222,146.275864 278.241058,138.736679 270.767548,140.691971 
	C273.384094,147.059067 278.510040,152.359344 277.191406,159.764282 
	C277.151276,159.989655 279.183411,160.584015 281.101166,160.753799 
M367.112885,141.602982 
	C364.521942,141.148529 361.929504,140.328644 359.340454,140.339188 
	C356.578979,140.350433 351.604736,140.754349 351.443115,141.667496 
	C350.729218,145.702332 354.693604,143.020752 356.333466,144.100601 
	C356.457214,144.182083 356.531647,144.338440 356.997986,144.920670 
	C356.997986,149.889465 356.997986,155.326462 356.997986,161.002594 
	C358.621582,160.911819 359.860596,160.842545 361.547272,160.748230 
	C361.547272,155.095032 361.547272,149.688629 361.547272,144.904587 
	C363.810852,143.933746 365.465057,143.224258 367.112885,141.602982 
M401.056030,149.524124 
	C401.056030,146.572815 401.056030,143.621506 401.056030,140.670181 
	C400.658600,140.369278 400.261139,140.068359 399.863708,139.767441 
	C398.725281,140.725616 396.653656,141.635941 396.601654,142.649826 
	C396.291809,148.691681 396.448395,154.757446 396.448395,160.710938 
	C401.187592,160.710938 405.236603,160.710938 409.705017,160.710938 
	C408.403778,155.122040 403.339874,159.510757 401.056030,156.533386 
	C401.056030,154.780334 401.056030,152.639145 401.056030,149.524124 
M421.838226,158.317245 
	C421.642822,162.113907 423.922821,161.017365 426.392456,160.592804 
	C426.392456,155.003571 426.392456,149.600403 426.392456,144.120163 
	C428.434357,143.967514 430.051575,143.846619 431.654816,143.726776 
	C431.531860,139.784943 428.001862,139.133636 416.400909,140.656067 
	C416.423340,143.536896 416.423340,143.536896 421.836731,144.535278 
	C421.836731,148.759399 421.836731,153.054199 421.838226,158.317245 
M43.903099,140.243195 
	C42.836754,141.046127 41.770405,141.849045 40.704060,142.651978 
	C41.025360,143.012665 41.346664,143.373367 41.667965,143.734055 
	C43.270332,143.872269 44.872696,144.010498 46.837448,144.179977 
	C46.837448,148.849213 46.993954,153.317154 46.788422,157.768372 
	C46.621040,161.393402 48.279163,161.524445 51.364811,160.465866 
	C51.364811,155.027725 51.364811,149.617599 51.364811,145.297867 
	C53.169662,142.678574 58.076736,146.046112 56.664360,140.241913 
	C52.747459,140.241913 48.787617,140.241913 43.903099,140.243195 
M195.930862,160.294510 
	C200.107574,160.601059 204.284286,160.907608 209.389801,161.282349 
	C207.457855,155.493683 202.664047,159.385284 200.191986,156.649429 
	C200.191986,154.398544 200.191971,151.766296 200.191971,149.134033 
	C200.191971,146.348999 200.191986,143.563950 200.191986,140.825836 
	C196.003601,140.480301 195.883774,140.478333 195.836136,143.387253 
	C195.749115,148.699844 195.819366,154.014999 195.930862,160.294510 
z"/>
<path fill="#175C91" opacity="1.000000" stroke="none" 
	d="
M400.851135,37.998795 
	C408.488586,36.664490 406.778198,42.094009 407.235016,47.117966 
	C413.148895,39.503777 420.821350,36.996563 428.960297,37.416023 
	C437.178497,37.839573 444.575714,41.009544 447.908051,49.154800 
	C451.897766,45.888641 455.112762,41.917618 459.269989,40.090511 
	C475.310242,33.040802 492.799622,39.598743 493.879852,60.581963 
	C494.512543,72.872406 493.889343,85.223495 494.066101,97.543930 
	C494.117645,101.135712 492.762299,102.212479 489.382996,102.044144 
	C485.230255,101.837280 481.038116,101.738365 476.901886,102.072884 
	C472.716461,102.411385 471.856964,100.550270 471.935089,96.826897 
	C472.130615,87.505524 472.021271,78.177216 471.991547,68.851822 
	C471.969818,62.027447 468.001373,57.073429 462.583527,57.007683 
	C456.190582,56.930103 451.120575,61.941208 451.033081,68.754097 
	C450.909058,78.411072 450.898315,88.072266 451.046783,97.728462 
	C451.097015,100.995079 449.929413,102.183456 446.691895,102.045547 
	C442.203827,101.854378 437.694672,101.844910 433.207581,102.047203 
	C429.863739,102.197952 428.908051,100.794792 428.953094,97.632378 
	C429.090698,87.975845 429.101746,78.314568 428.964233,68.657959 
	C428.850647,60.681095 422.430664,55.297859 415.690887,57.276230 
	C411.166809,58.604214 407.107666,65.208244 407.029510,71.758873 
	C406.928223,80.250534 406.847870,88.748352 407.071503,97.235268 
	C407.170013,100.973389 405.887421,102.294586 402.192627,102.057678 
	C398.212280,101.802437 394.199646,101.896843 390.207581,102.031639 
	C387.368683,102.127510 385.940735,101.333794 385.957245,98.137543 
	C386.054443,79.320557 386.040344,60.502701 385.971252,41.685478 
	C385.960693,38.813538 387.187378,37.879208 389.884827,37.974041 
	C393.377502,38.096836 396.877869,38.000633 400.851135,37.998795 
z"/>
<path fill="#D95719" opacity="1.000000" stroke="none" 
	d="
M146.999298,56.928085 
	C146.999298,50.160999 146.999298,43.882931 146.999298,37.309933 
	C154.448273,37.309933 161.348694,37.309933 168.740112,37.309933 
	C168.855392,39.397640 169.052261,41.335770 169.055328,43.274208 
	C169.080887,59.401859 168.902084,75.531738 169.110107,91.656754 
	C169.437225,117.013710 147.530548,128.331909 127.470665,124.180946 
	C121.543228,122.954376 115.789833,120.897934 109.938873,119.286446 
	C106.210175,118.259483 104.744041,116.447449 106.535278,112.466484 
	C108.144440,108.890175 109.148262,105.041496 110.214668,101.912766 
	C116.631561,103.670593 122.677864,105.880180 128.919159,106.925308 
	C143.405746,109.351143 148.865662,98.601189 146.683273,88.682175 
	C142.244537,90.940498 137.921173,94.249458 133.084793,95.397720 
	C117.042343,99.206566 102.304573,89.842567 102.927361,71.800751 
	C103.317200,60.507263 102.999908,49.189369 102.999908,37.441868 
	C110.284248,37.441868 117.303619,37.441868 125.061340,37.441868 
	C125.061340,46.171730 125.110611,54.767445 125.047684,63.362331 
	C124.982826,72.219215 127.214706,75.556267 133.238037,76.050850 
	C143.247543,76.872734 145.164307,71.314903 146.905807,63.892532 
	C147.387466,61.839760 146.992203,59.581226 146.999298,56.928085 
z"/>
<path fill="#D95618" opacity="1.000000" stroke="none" 
	d="
M252.004135,62.257519 
	C253.825455,72.451813 252.353806,81.533485 247.436172,90.326744 
	C239.974503,103.668922 216.470154,107.625343 206.734711,97.406731 
	C206.114380,96.755623 205.101395,96.478622 204.206711,95.992622 
	C204.020340,97.915871 203.847351,99.701172 203.650665,101.731071 
	C196.855011,101.731071 190.268707,101.731071 183.341232,101.731071 
	C183.341232,72.570526 183.341232,43.665859 183.341232,14.379771 
	C190.008881,14.379771 196.581863,14.379771 203.831940,14.379771 
	C203.831940,24.204468 203.831940,34.066265 203.831940,45.031990 
	C209.817993,39.913109 215.430283,36.893078 222.412613,36.957287 
	C236.421432,37.086121 246.922073,44.715668 250.929184,58.012875 
	C251.309723,59.275658 251.627563,60.557339 252.004135,62.257519 
M218.234436,54.261009 
	C214.878799,55.682728 210.888519,56.388901 208.304535,58.680672 
	C203.479034,62.960503 203.357971,74.633263 207.299606,79.784775 
	C211.348572,85.076569 219.206284,86.859161 223.992661,83.388382 
	C229.244873,79.579834 231.704010,74.177933 230.753174,67.864357 
	C229.741348,61.145901 226.633957,55.670654 218.234436,54.261009 
z"/>
<path fill="#175D91" opacity="1.000000" stroke="none" 
	d="
M317.276367,45.224808 
	C331.090515,33.934345 354.844971,33.981079 367.205505,46.034714 
	C377.870453,56.434814 380.571991,73.121780 371.666931,88.745491 
	C366.293884,98.172386 357.303284,102.559486 347.794586,103.473343 
	C333.755096,104.822632 319.852448,102.606400 311.447113,88.798790 
	C309.680634,85.896973 308.194214,82.521584 307.705811,79.198753 
	C305.866272,66.683258 306.014343,54.524925 317.276367,45.224808 
M340.712341,85.930161 
	C351.993713,85.182373 355.662720,76.967781 354.847290,67.661430 
	C354.334412,61.808002 348.418762,55.602276 343.626648,55.138496 
	C337.248230,54.521194 331.891724,57.770008 329.675323,63.811176 
	C326.559875,72.302795 329.365570,84.061707 340.712341,85.930161 
z"/>
<path fill="#175C91" opacity="1.000000" stroke="none" 
	d="
M288.456940,42.310562 
	C292.903015,40.562721 296.985321,38.792336 301.231476,37.610981 
	C302.172394,37.349194 304.719025,39.104362 304.776489,40.038494 
	C305.118042,45.589405 304.945221,51.171967 304.945221,56.098793 
	C299.481079,57.486870 295.084534,58.210983 290.991547,59.745007 
	C286.107605,61.575481 284.108002,65.819595 284.037567,70.835716 
	C283.918274,79.329941 283.727081,87.839531 284.110321,96.318062 
	C284.327362,101.118927 282.545135,102.426804 278.105530,102.068054 
	C274.133301,101.747078 270.110535,101.883804 266.118225,102.034409 
	C263.182709,102.145157 261.941620,101.153999 261.957336,98.045052 
	C262.051849,79.387901 262.045807,60.729836 261.960907,42.072590 
	C261.947357,39.094078 262.931854,37.807457 266.001129,37.965092 
	C269.324005,38.135765 272.662537,37.999249 275.994263,37.999329 
	C283.809143,37.999519 283.809143,38.000153 284.191254,46.061367 
	C285.666412,44.735111 286.909302,43.617687 288.456940,42.310562 
z"/>
<path fill="#11A1DD" opacity="1.000000" stroke="none" 
	d="
M31.635757,43.010788 
	C27.958008,51.525017 26.971022,60.013168 31.811657,69.011337 
	C26.105921,72.826141 20.470755,76.073769 14.835587,79.321396 
	C14.835585,79.321388 14.774414,79.231903 14.748570,78.962036 
	C14.609942,78.411697 14.418187,78.204262 14.147460,78.069862 
	C6.266150,63.212273 5.973169,48.348915 14.721700,33.357208 
	C20.765137,36.493778 26.200447,39.752285 31.635757,43.010788 
z"/>
<path fill="#D85619" opacity="1.000000" stroke="none" 
	d="
M54.174957,82.075798 
	C57.916203,80.957108 61.981289,80.422394 65.317070,78.572540 
	C69.526993,76.237915 73.142097,72.830658 77.743454,69.331207 
	C82.537727,71.950974 88.254158,75.074646 93.915848,78.168396 
	C89.269623,90.755875 71.666313,101.723083 54.525215,101.486656 
	C54.113766,94.688416 54.144360,88.382103 54.174957,82.075798 
z"/>
<path fill="#FBB86A" opacity="1.000000" stroke="none" 
	d="
M54.141705,10.159163 
	C71.796700,9.685447 84.513634,17.981110 94.349602,32.548698 
	C88.405411,36.253281 82.855370,39.712215 77.027649,43.344212 
	C71.253189,35.091438 63.943989,30.013531 53.578270,29.645811 
	C53.617908,22.827932 53.879807,16.493547 54.141705,10.159163 
z"/>
<path fill="#175D91" opacity="1.000000" stroke="none" 
	d="
M53.801041,81.923073 
	C54.144360,88.382103 54.113766,94.688416 54.099594,101.458900 
	C50.266857,101.689354 46.123856,102.294365 42.622536,101.067726 
	C31.219479,97.072845 21.016472,91.156960 14.917377,79.638397 
	C20.470755,76.073769 26.105921,72.826141 31.993916,69.336746 
	C37.358681,76.575493 44.387638,80.852699 53.801041,81.923073 
z"/>
<path fill="#75C5E9" opacity="1.000000" stroke="none" 
	d="
M53.695553,10.100151 
	C53.879807,16.493547 53.617908,22.827932 53.160545,29.533777 
	C44.090141,30.889723 36.446087,33.929733 31.850773,42.715431 
	C26.200447,39.752285 20.765137,36.493778 14.966124,33.146080 
	C23.349426,18.441137 36.023407,10.419374 53.695553,10.100151 
z"/>
<path fill="#F2B96A" opacity="1.000000" stroke="none" 
	d="
M53.996716,36.270359 
	C61.253521,35.435375 66.396957,39.038326 70.814697,44.913620 
	C65.478111,49.378139 60.097282,53.187149 54.518066,56.989994 
	C54.319683,56.983829 53.922970,56.930779 53.923439,56.677334 
	C53.883644,56.259796 53.843384,56.095703 53.907845,55.481838 
	C54.007286,48.778168 54.002003,42.524261 53.996716,36.270359 
z"/>
<path fill="#F08A40" opacity="1.000000" stroke="none" 
	d="
M54.716454,56.996162 
	C60.097282,53.187149 65.478111,49.378139 70.930519,45.225971 
	C75.465401,51.705841 74.875710,58.560101 70.649521,65.635498 
	C65.110352,63.146881 60.050804,60.456646 54.890198,57.585396 
	C54.789135,57.404381 54.716454,56.996162 54.716454,56.996162 
z"/>
<path fill="#11A1DC" opacity="1.000000" stroke="none" 
	d="
M53.803123,55.931606 
	C53.843384,56.095703 53.883644,56.259796 53.720959,56.951141 
	C48.318302,60.305229 43.118587,63.132057 37.918877,65.958885 
	C33.764912,60.138248 33.723495,54.053116 37.267876,47.486298 
	C43.125462,50.111774 48.464294,53.021690 53.803123,55.931606 
z"/>
<path fill="#77C4E7" opacity="1.000000" stroke="none" 
	d="
M53.907845,55.481838 
	C48.464294,53.021690 43.125462,50.111774 37.446529,47.242805 
	C40.134525,40.169655 46.052250,37.264980 53.617943,36.239777 
	C54.002003,42.524261 54.007286,48.778168 53.907845,55.481838 
z"/>
<path fill="#1F5C8C" opacity="1.000000" stroke="none" 
	d="
M38.078869,66.274673 
	C43.118587,63.132057 48.318302,60.305229 53.720490,57.204590 
	C53.922970,56.930779 54.319683,56.983829 54.518066,56.989998 
	C54.716454,56.996162 54.789135,57.404381 54.795116,58.070900 
	C54.445030,64.487968 54.088963,70.238518 53.732895,75.989067 
	C47.267643,75.000259 41.299927,73.191238 38.078869,66.274673 
z"/>
<path fill="#DA581A" opacity="1.000000" stroke="none" 
	d="
M54.149899,75.987640 
	C54.088963,70.238518 54.445030,64.487968 54.896179,58.251915 
	C60.050804,60.456646 65.110352,63.146881 70.502579,65.909363 
	C67.958870,73.457146 61.128746,74.503548 54.149899,75.987640 
z"/>
<path fill="#175D91" opacity="1.000000" stroke="none" 
	d="
M14.182670,78.282730 
	C14.418187,78.204262 14.609942,78.411697 14.750641,78.907883 
	C14.491981,79.003166 14.305088,78.793831 14.182670,78.282730 
z"/>
<path fill="#F1F3F4" opacity="1.000000" stroke="none" 
	d="
M126.138718,160.913925 
	C125.372841,158.085510 125.047340,155.346100 124.692719,152.361542 
	C122.406288,152.361542 120.136948,152.361542 117.360138,152.361542 
	C117.360138,155.024292 117.360138,157.762024 117.360138,160.753510 
	C115.617516,160.753510 114.374290,160.753510 112.715057,160.753510 
	C112.715057,157.076126 112.714882,153.445129 112.715126,149.814133 
	C112.715279,147.649475 112.381111,145.410843 112.836914,143.346725 
	C113.130241,142.018341 114.584900,140.946396 115.519051,139.759521 
	C116.002037,140.060364 116.485031,140.361206 116.968025,140.662048 
	C117.089981,143.107239 117.211945,145.552429 117.348297,148.286072 
	C119.837410,148.286072 122.100288,148.286072 124.817886,148.286072 
	C124.964523,146.020416 125.121124,143.600830 125.295174,140.911636 
	C128.040817,139.699295 129.927658,139.669037 129.847885,143.642380 
	C129.750961,148.469299 129.698868,153.304214 129.874832,158.126648 
	C129.970291,160.742844 128.767838,161.294586 126.138718,160.913925 
z"/>
<path fill="#F2F3F4" opacity="1.000000" stroke="none" 
	d="
M140.098526,147.161621 
	C140.098526,144.725235 140.098526,142.761719 140.098526,140.299149 
	C149.036713,140.017685 148.068649,149.071274 152.720062,152.396515 
	C153.102997,148.435822 153.451187,144.465652 153.986786,140.520920 
	C154.010422,140.346741 155.745041,140.404892 156.956635,140.340195 
	C156.956635,147.266098 156.956635,153.860840 156.956635,161.312393 
	C148.785049,160.227051 149.094940,151.934067 144.481400,147.632782 
	C144.481400,152.022095 144.481400,156.164291 144.481400,160.410080 
	C141.756058,161.324127 139.946198,161.675629 140.072662,158.123108 
	C140.196991,154.631042 140.098969,151.131027 140.098526,147.161621 
z"/>
<path fill="#E7E9EC" opacity="1.000000" stroke="none" 
	d="
M254.913635,151.023880 
	C257.259857,150.057495 259.604004,149.513382 262.153290,148.921646 
	C262.445679,150.511032 262.809143,151.219955 262.636139,151.755615 
	C261.648224,154.814453 265.328949,159.539032 259.736053,160.905869 
	C252.978775,162.557251 247.102921,160.117126 245.176819,155.262177 
	C243.226593,150.346420 244.918869,144.617691 249.094482,141.999954 
	C252.755997,139.704498 256.692780,139.444504 261.797516,142.543427 
	C260.315521,142.924362 258.836029,143.619934 257.351105,143.631699 
	C250.977951,143.682220 247.569336,148.157669 249.795319,153.771194 
	C251.198883,157.310745 253.966873,158.225113 257.424408,157.806000 
	C259.808044,154.360825 256.932159,153.075943 254.913635,151.023880 
z"/>
<path fill="#F4F5F7" opacity="1.000000" stroke="none" 
	d="
M228.554382,161.049332 
	C220.201431,161.213837 216.416412,157.655991 216.621490,150.263763 
	C216.801224,143.786133 221.423996,139.418808 227.562958,140.071259 
	C232.274933,140.572067 235.129333,143.291092 235.979691,147.925842 
	C237.159409,154.355713 234.951202,158.367279 228.554382,161.049332 
M221.371414,148.989136 
	C221.611481,150.929001 221.243469,153.316055 222.253616,154.689606 
	C223.383484,156.225983 225.762634,156.843628 227.598129,157.861084 
	C228.875931,155.245972 231.091888,152.648315 231.140915,150.010376 
	C231.181656,147.817459 229.146805,144.420547 227.188721,143.621307 
	C224.026642,142.330612 222.333435,145.264801 221.371414,148.989136 
z"/>
<path fill="#F4F5F7" opacity="1.000000" stroke="none" 
	d="
M184.465485,157.414108 
	C179.986786,161.643494 174.708557,162.398392 170.793259,159.646103 
	C167.070435,157.029114 165.590332,150.961884 167.497787,146.137314 
	C169.219208,141.783295 173.508179,139.389801 178.306198,140.105591 
	C185.479935,141.175781 188.284927,148.641678 184.465485,157.414108 
M176.505508,157.994217 
	C181.860046,156.047119 183.664642,147.888763 179.409943,144.423813 
	C176.842712,142.333099 174.443787,143.053284 172.684677,145.680588 
	C170.033417,149.640335 171.461853,155.203018 176.505508,157.994217 
z"/>
<path fill="#F5F6F7" opacity="1.000000" stroke="none" 
	d="
M440.851685,143.308990 
	C440.996124,142.207001 441.169128,141.016022 441.276337,141.021896 
	C445.767944,141.268646 450.547791,140.773499 454.658508,142.198105 
	C458.894592,143.666168 459.413361,148.241806 458.747864,152.451248 
	C458.015472,157.083969 455.160431,160.015213 450.615540,160.724274 
	C447.577209,161.198318 444.405029,160.814346 440.849609,160.814346 
	C440.849609,155.005157 440.849609,149.391708 440.851685,143.308990 
M454.071808,151.308197 
	C453.726349,144.698776 451.925232,143.073914 445.485657,143.782516 
	C445.485657,148.430435 445.485657,153.100296 445.485657,157.902222 
	C450.184357,158.286118 453.211853,156.828934 454.071808,151.308197 
z"/>
<path fill="#EDEFF1" opacity="1.000000" stroke="none" 
	d="
M344.106415,141.885986 
	C342.186340,147.552475 340.485321,152.935669 338.369995,158.150803 
	C337.863831,159.398682 336.038391,160.701797 334.706879,160.832901 
	C333.689484,160.933105 331.902649,159.441193 331.477631,158.283264 
	C329.378632,152.564819 327.619049,146.721786 326.383636,140.553970 
	C334.286896,141.800018 331.414642,150.149139 335.455566,154.590073 
	C336.683014,150.483719 337.788208,146.643250 338.983734,142.831100 
	C339.982178,139.647400 341.725037,139.079895 344.106415,141.885986 
z"/>
<path fill="#ECEDEF" opacity="1.000000" stroke="none" 
	d="
M313.517822,152.822540 
	C311.504791,153.171646 309.883698,153.391296 308.031433,153.642288 
	C308.031433,155.954239 308.031433,158.081207 308.031433,160.648087 
	C306.446320,160.798660 305.078827,160.928574 303.416565,161.086472 
	C303.416565,154.136627 303.416565,147.564972 303.416565,141.052124 
	C310.286560,139.116104 316.081451,140.131104 317.584625,143.747635 
	C319.252716,147.760956 317.976593,150.878036 313.517822,152.822540 
M313.309998,145.149857 
	C311.750946,144.387619 310.191864,143.625381 308.224548,142.663544 
	C308.224548,145.863647 308.224548,147.915283 308.224548,150.069092 
	C311.503815,150.123795 313.974304,149.704361 313.309998,145.149857 
z"/>
<path fill="#F4F5F6" opacity="1.000000" stroke="none" 
	d="
M74.634140,143.816544 
	C70.119225,144.172485 70.119225,144.172485 70.760559,148.178314 
	C72.800430,150.089996 77.298195,146.415680 78.165825,151.730133 
	C75.433319,151.892639 73.022087,152.036041 70.439896,152.189606 
	C70.439896,154.043549 70.439896,155.626419 70.439896,156.976120 
	C73.049545,159.133377 77.496544,155.678848 79.749588,160.679962 
	C74.662750,160.679962 70.491165,160.679962 66.078613,160.679962 
	C66.078613,154.045700 66.078613,147.480453 66.078613,140.254517 
	C69.223991,140.254517 72.324394,140.116440 75.399780,140.333221 
	C76.407166,140.404221 77.349586,141.396988 78.321716,141.968216 
	C77.233307,142.584259 76.144905,143.200317 74.634140,143.816544 
z"/>
<path fill="#EEF0F2" opacity="1.000000" stroke="none" 
	d="
M99.613617,161.163010 
	C90.893761,160.926605 86.607864,157.009338 87.158554,150.149002 
	C87.691345,143.511703 93.763474,138.897705 100.535088,140.174561 
	C101.499779,140.356476 102.274498,141.545883 103.137138,142.268997 
	C102.292000,142.713989 101.460358,143.514359 100.599579,143.547043 
	C94.400627,143.782394 91.774605,146.047623 92.039032,151.156494 
	C92.290436,156.013763 95.107010,158.057617 101.065910,157.716110 
	C101.541176,157.688873 102.019363,157.712524 102.496193,157.712524 
	C102.771080,158.117538 103.045967,158.522552 103.320854,158.927582 
	C102.212273,159.665680 101.103683,160.403793 99.613617,161.163010 
z"/>
<path fill="#ECEDF0" opacity="1.000000" stroke="none" 
	d="
M280.675293,160.880066 
	C279.183411,160.584015 277.151276,159.989655 277.191406,159.764282 
	C278.510040,152.359344 273.384094,147.059067 270.767548,140.691971 
	C278.241058,138.736679 276.346222,146.275864 279.604492,148.342056 
	C282.526825,146.252090 280.744659,138.843628 286.826233,140.280960 
	C284.898865,147.173233 283.000031,153.963516 280.675293,160.880066 
z"/>
<path fill="#F0F2F3" opacity="1.000000" stroke="none" 
	d="
M367.116089,142.058884 
	C365.465057,143.224258 363.810852,143.933746 361.547272,144.904587 
	C361.547272,149.688629 361.547272,155.095032 361.547272,160.748230 
	C359.860596,160.842545 358.621582,160.911819 356.997986,161.002594 
	C356.997986,155.326462 356.997986,149.889465 356.997986,144.920670 
	C356.531647,144.338440 356.457214,144.182083 356.333466,144.100601 
	C354.693604,143.020752 350.729218,145.702332 351.443115,141.667496 
	C351.604736,140.754349 356.578979,140.350433 359.340454,140.339188 
	C361.929504,140.328644 364.521942,141.148529 367.116089,142.058884 
z"/>
<path fill="#EAECEF" opacity="1.000000" stroke="none" 
	d="
M401.056030,150.011047 
	C401.056030,152.639145 401.056030,154.780334 401.056030,156.533386 
	C403.339874,159.510757 408.403778,155.122040 409.705017,160.710938 
	C405.236603,160.710938 401.187592,160.710938 396.448395,160.710938 
	C396.448395,154.757446 396.291809,148.691681 396.601654,142.649826 
	C396.653656,141.635941 398.725281,140.725616 399.863708,139.767441 
	C400.261139,140.068359 400.658600,140.369278 401.056030,140.670181 
	C401.056030,143.621506 401.056030,146.572815 401.056030,150.011047 
z"/>
<path fill="#F1F2F4" opacity="1.000000" stroke="none" 
	d="
M421.837463,157.833115 
	C421.836731,153.054199 421.836731,148.759399 421.836731,144.535278 
	C416.423340,143.536896 416.423340,143.536896 416.400909,140.656067 
	C428.001862,139.133636 431.531860,139.784943 431.654816,143.726776 
	C430.051575,143.846619 428.434357,143.967514 426.392456,144.120163 
	C426.392456,149.600403 426.392456,155.003571 426.392456,160.592804 
	C423.922821,161.017365 421.642822,162.113907 421.837463,157.833115 
z"/>
<path fill="#F1F2F4" opacity="1.000000" stroke="none" 
	d="
M44.365437,140.242554 
	C48.787617,140.241913 52.747459,140.241913 56.664360,140.241913 
	C58.076736,146.046112 53.169662,142.678574 51.364811,145.297867 
	C51.364811,149.617599 51.364811,155.027725 51.364811,160.465866 
	C48.279163,161.524445 46.621040,161.393402 46.788422,157.768372 
	C46.993954,153.317154 46.837448,148.849213 46.837448,144.179977 
	C44.872696,144.010498 43.270332,143.872269 41.667965,143.734055 
	C41.346664,143.373367 41.025360,143.012665 40.704060,142.651978 
	C41.770405,141.849045 42.836754,141.046127 44.365437,140.242554 
z"/>
<path fill="#FAFAFB" opacity="1.000000" stroke="none" 
	d="
M195.877441,159.811798 
	C195.819366,154.014999 195.749115,148.699844 195.836136,143.387253 
	C195.883774,140.478333 196.003601,140.480301 200.191986,140.825836 
	C200.191986,143.563950 200.191971,146.348999 200.191971,149.134033 
	C200.191971,151.766296 200.191986,154.398544 200.191986,156.649429 
	C202.664047,159.385284 207.457855,155.493683 209.389801,161.282349 
	C204.284286,160.907608 200.107574,160.601059 195.877441,159.811798 
z"/>
<path fill="#4A704E" opacity="1.000000" stroke="none" 
	d="
M218.592773,54.421459 
	C226.633957,55.670654 229.741348,61.145901 230.753174,67.864357 
	C231.704010,74.177933 229.244873,79.579834 223.992661,83.388382 
	C219.206284,86.859161 211.348572,85.076569 207.299606,79.784775 
	C203.357971,74.633263 203.479034,62.960503 208.304535,58.680672 
	C210.888519,56.388901 214.878799,55.682728 218.592773,54.421459 
z"/>
<path fill="#47704C" opacity="1.000000" stroke="none" 
	d="
M340.319580,85.871857 
	C329.365570,84.061707 326.559875,72.302795 329.675323,63.811176 
	C331.891724,57.770008 337.248230,54.521194 343.626648,55.138496 
	C348.418762,55.602276 354.334412,61.808002 354.847290,67.661430 
	C355.662720,76.967781 351.993713,85.182373 340.319580,85.871857 
z"/>
<path fill="#263950" opacity="1.000000" stroke="none" 
	d="
M221.476227,148.615387 
	C222.333435,145.264801 224.026642,142.330612 227.188721,143.621307 
	C229.146805,144.420547 231.181656,147.817459 231.140915,150.010376 
	C231.091888,152.648315 228.875931,155.245972 227.598129,157.861084 
	C225.762634,156.843628 223.383484,156.225983 222.253616,154.689606 
	C221.243469,153.316055 221.611481,150.929001 221.476227,148.615387 
z"/>
<path fill="#273A51" opacity="1.000000" stroke="none" 
	d="
M176.116943,157.972748 
	C171.461853,155.203018 170.033417,149.640335 172.684677,145.680588 
	C174.443787,143.053284 176.842712,142.333099 179.409943,144.423813 
	C183.664642,147.888763 181.860046,156.047119 176.116943,157.972748 
z"/>
<path fill="#283A51" opacity="1.000000" stroke="none" 
	d="
M454.042786,151.718918 
	C453.211853,156.828934 450.184357,158.286118 445.485657,157.902222 
	C445.485657,153.100296 445.485657,148.430435 445.485657,143.782516 
	C451.925232,143.073914 453.726349,144.698776 454.042786,151.718918 
z"/>
<path fill="#273A51" opacity="1.000000" stroke="none" 
	d="
M313.488525,145.494629 
	C313.974304,149.704361 311.503815,150.123795 308.224548,150.069092 
	C308.224548,147.915283 308.224548,145.863647 308.224548,142.663544 
	C310.191864,143.625381 311.750946,144.387619 313.488525,145.494629 
z"/>
</svg>